<?xml version="1.0" encoding="UTF-8" standalone="no"?>
<!-- Created with Inkscape (http://www.inkscape.org/) -->

<svg
   width="16"
   height="16"
   viewBox="0 0 16 16"
   version="1.1"
   id="svg1"
   inkscape:version="1.4.2 (ebf0e940d0, 2025-05-08)"
   sodipodi:docname="izmiricon.svg"
   xmlns:inkscape="http://www.inkscape.org/namespaces/inkscape"
   xmlns:sodipodi="http://sodipodi.sourceforge.net/DTD/sodipodi-0.dtd"
   xmlns="http://www.w3.org/2000/svg"
   xmlns:svg="http://www.w3.org/2000/svg">
  <sodipodi:namedview
     id="namedview1"
     pagecolor="#ffffff"
     bordercolor="#000000"
     borderopacity="0.25"
     inkscape:showpageshadow="2"
     inkscape:pageopacity="0.0"
     inkscape:pagecheckerboard="0"
     inkscape:deskcolor="#d1d1d1"
     inkscape:document-units="px"
     inkscape:zoom="36.769553"
     inkscape:cx="5.8336309"
     inkscape:cy="10.062673"
     inkscape:window-width="1906"
     inkscape:window-height="1066"
     inkscape:window-x="0"
     inkscape:window-y="0"
     inkscape:window-maximized="0"
     inkscape:current-layer="layer1" />
  <defs
     id="defs1" />
  <g
     inkscape:label="Layer 1"
     inkscape:groupmode="layer"
     id="layer1">
    <path
       id="path1"
       style="fill:#000000"
       d="m 3.5566406,7.0703125 -0.083984,0.00195 c -0.00489,0.00341 -0.010247,0.0068 -0.015625,0.00977 0.043295,-0.00586 0.08161,-0.01068 0.099609,-0.011719 z m -0.875,0.015625 c -0.017729,0.00374 -0.035037,0.00795 -0.052734,0.011719 0.00849,2.502e-4 0.016929,-2.649e-4 0.025391,0 h 0.00977 0.021484 c -8.557e-4,-0.00347 -0.00308,-0.00825 -0.00391,-0.011719 z" />
    <path
       style="fill:#000000"
       id="path17"
       d="m 3.8323286,7.6959661 c -0.00117,-0.048608 -0.023442,-0.094472 -0.02609,-0.1427819 -0.00186,-0.033955 0.00271,-0.067961 0.00466,-0.1019105 0.00729,-0.1270521 0.021546,-0.2525127 0.0381,-0.3786382 0.00643,-0.042998 0.013228,-0.085942 0.019288,-0.1289934 0.006,-0.042652 0.010069,-0.085579 0.016902,-0.1281062 0.021092,-0.1312813 0.055334,-0.2602561 0.080283,-0.390819 0.025291,-0.1501303 0.066328,-0.2962785 0.093167,-0.4461272 0.01622,-0.096357 0.00487,-0.1944544 0.010628,-0.2912234 0.00229,-0.038502 0.00884,-0.076632 0.013121,-0.114963 0.021815,-0.1952248 0.00471,-0.05209 0.028397,-0.2440603 0.023354,-0.1675902 0.05617,-0.3337278 0.1161719,-0.4922023 0.00347,-0.010482 0.00617,-0.021255 0.010423,-0.031446 0.01601,-0.038361 0.036918,-0.075187 0.052451,-0.113881 0.00552,-0.013738 0.041674,-0.1165948 0.046795,-0.1310984 0.060104,-0.1350521 0.1201325,-0.2715976 0.1523802,-0.4163874 0.03484,-0.1040344 0.069934,-0.2083296 0.094045,-0.315445 0,0 -3.2522578,-1.7365072 -3.2522578,-1.7365072 v 0 c -0.01652,0.098622 -0.014271,0.2003159 -0.048537,0.2959573 -0.04769,0.121476 -0.069609,0.2517235 -0.131358,0.368015 -0.065639,0.1098296 -0.1371871,0.2181526 -0.16907802,0.3437302 -0.0140369,0.1877066 -0.0160882,0.3759354 -0.0338432,0.5633681 -0.0170048,0.1138328 -0.0293679,0.2312051 -0.0578094,0.3429625 -0.00905,0.03556 -0.0233104,0.069627 -0.0329849,0.1050215 -0.0142253,0.052044 -0.0215623,0.1002261 -0.0307671,0.1528992 -0.024111,0.1546529 -0.0431721,0.3095486 -0.0695116,0.4638079 -0.004193,0.032883 -0.01063,0.065557 -0.0125804,0.09865 -0.004078,0.069183 0.001807,0.1386801 -0.001513,0.2079036 -0.006574,0.1370525 -0.008113,0.1100068 -0.0269302,0.248701 -0.005615,0.041384 -0.01052,0.082861 -0.01578,0.1242908 -0.0341955,0.1904338 -0.0698298,0.3859028 -0.17449137,0.5522945 z" />
    <path
       style="fill:#000000"
       id="path18"
       d="m 1.5156035,0.19549745 c -0.021555,0.12895034 -0.042691,0.25795174 -0.066086,0.38663173 -0.00559,0.0229639 -0.011885,0.0457681 -0.016775,0.0688915 -0.00513,0.0242529 -0.00804,0.0489439 -0.013268,0.0731747 -0.01351,0.0625668 -0.033966,0.12340994 -0.048411,0.18573313 -0.00306,0.0653482 -0.016022,0.12741419 -0.033201,0.19039309 0,0 3.25494,1.745953 3.25494,1.745953 v 0 c 0.010586,-0.069645 0.032717,-0.1332871 0.05334,-0.2002663 0.0044,-0.050099 0.011827,-0.10085 0.014372,-0.15099 0.00311,-0.061335 0.00104,-0.1228745 0.014598,-0.1835581 0.025001,-0.1008933 0.00501,-0.026429 0.036562,-0.1281371 0.016757,-0.054019 0.020501,-0.1162195 0.062772,-0.1575631 z" />
    <path
       style="fill:#000000"
       id="path19"
       d="M 8.0925592,2.926535 C 8.205831,2.8462472 8.3479948,2.8074219 8.4821537,2.7780306 8.657829,2.7509674 8.8364971,2.7478557 9.0138902,2.7404725 c 0.025344,-8.193e-4 0.2071149,-0.00702 0.2291464,-0.00636 0.040019,0.00121 0.079778,0.0069 0.1196964,0.00999 0.1351787,0.010432 0.2678921,0.022561 0.40212,0.042127 0.288619,0.026047 0.572329,0.0852 0.859557,0.1222023 0.357014,0.030646 0.702823,0.1277042 1.045647,0.2266309 0.214144,0.059466 0.431231,0.1039729 0.649312,0.1458541 0.04969,0.00954 0.09907,0.020883 0.149126,0.028277 0.04875,0.0072 0.09801,0.010313 0.147021,0.015469 0.181656,0.013076 0.361839,0.030219 0.54126,0.06161 0,0 -2.874043,-2.1375075 -2.874043,-2.1375075 v 0 C 10.117099,1.2414131 9.9511136,1.2353124 9.7874592,1.2060717 9.4957068,1.1502578 9.2033089,1.0967235 8.9153743,1.0229125 8.5494523,0.93557437 8.1805497,0.86185763 7.8099525,0.7971685 7.5160786,0.74501017 7.2202957,0.70442115 6.9235981,0.67198711 6.6496212,0.64885498 6.3757161,0.62771668 6.1004286,0.63706837 c -0.1104479,0.002213 -0.2210872,0.003245 -0.330652,0.0193702 -0.072396,0.0106549 -0.1094144,0.0215973 -0.1796088,0.0400193 -0.031591,0.008291 -0.063119,0.0168229 -0.094678,0.0252344 -0.1586392,0.0473899 -0.3222611,0.0850431 -0.4882252,0.0918653 z" />
    <path
       style="fill:#000000"
       id="path20"
       d="m 10.520853,1.4596827 c 0.0028,0.097235 -0.0509,0.1863108 -0.09211,0.2708513 -0.01714,0.035173 -0.03239,0.071238 -0.04859,0.106857 -0.02046,0.041074 -0.04092,0.082148 -0.06138,0.123222 C 10.210095,2.1516076 10.07578,2.3247943 9.9343068,2.4922356 9.8919173,2.5424059 9.8502607,2.593279 9.8055174,2.6413619 9.7610978,2.6890971 9.7131747,2.733448 9.6670033,2.779491 9.5395732,2.8939336 9.4176394,3.0146655 9.290384,3.1292612 9.2537947,3.1622105 9.2145864,3.1921859 9.1782101,3.2253702 9.1079728,3.2894441 9.0410315,3.3570589 8.9711334,3.4215026 8.8400708,3.5346353 8.7094133,3.6475052 8.5817365,3.7644058 c -0.030424,0.027856 -0.062992,0.053378 -0.092559,0.082143 -0.034803,0.033858 -0.06692,0.070372 -0.1003806,0.1055582 -0.1301977,0.118563 -0.2587855,0.2408623 -0.4010652,0.34525 -0.1358343,0.099659 -0.1525643,0.096846 -0.2909012,0.1824009 -0.041539,0.02569 -0.081739,0.053483 -0.122608,0.080225 -0.035031,0.021534 -0.070268,0.042735 -0.1050918,0.064601 -0.1455437,0.091388 -0.040603,0.029272 -0.17643,0.109976 -0.065822,0.03911 -0.1328927,0.07438 -0.1974588,0.1155172 -0.051517,0.038477 -0.1117744,0.062789 -0.1655233,0.097512 -0.018655,0.012052 -0.035581,0.026616 -0.053955,0.039092 -0.018556,0.012599 -0.085152,0.052875 -0.103021,0.063772 -0.070679,0.047714 -0.034,0.023966 -0.1101774,0.071025 0,0 3.0799667,1.9870182 3.0799667,1.9870182 v 0 c 0.077444,-0.047903 0.037116,-0.024125 0.1211602,-0.071033 0.1061143,-0.07147 0.2164259,-0.1371564 0.3147059,-0.2196406 0.146286,-0.1086107 0.268917,-0.2441177 0.401137,-0.3688952 0.03971,-0.039183 0.161039,-0.1595823 0.197699,-0.1926452 0.184076,-0.1660167 0.393341,-0.298698 0.597947,-0.437354 0.04448,-0.029978 0.09037,-0.057942 0.133423,-0.089935 0.176341,-0.131052 0.317489,-0.2996371 0.47382,-0.4521938 0.03089,-0.030388 0.177812,-0.174197 0.20725,-0.206127 0.03301,-0.035807 0.06273,-0.07453 0.0949,-0.1110906 0.03559,-0.040442 0.07337,-0.078951 0.108382,-0.1198944 0.07434,-0.086927 0.140862,-0.1803624 0.217464,-0.2654356 0.04433,-0.048568 0.0874,-0.09832 0.133,-0.1457038 0.214589,-0.2230009 0.447374,-0.4298324 0.634987,-0.6776552 0.05683,-0.067762 0.116441,-0.1331948 0.172178,-0.2018586 0.02074,-0.02555 0.03743,-0.054291 0.05891,-0.079221 0.04911,-0.056992 0.107635,-0.1083805 0.163727,-0.1582828 z" />
    <path
       style="fill:#000000"
       id="path21"
       d="m 9.5892702,7.3225878 c 0.1418169,-0.06526 0.3006002,-0.071618 0.4531138,-0.087356 0.353565,-0.036485 0.08767,-0.016383 0.460123,-0.038916 0.496224,-0.048244 0.99537,-0.054069 1.493514,-0.046878 0.165354,0.00282 0.330716,0.0096 0.496113,0.010071 0.04778,1.362e-4 0.09563,-0.00419 0.14334,-0.00152 0.04379,0.00245 0.239316,0.03212 0.280633,0.038175 0.386793,0.010358 0.770973,0.0655 1.154238,0.115372 0.07095,0.010847 0.141675,0.023315 0.212856,0.032542 0.205906,0.026689 0.233647,0.020824 0.442874,0.044519 0.222848,0.025236 0.444242,0.063005 0.665604,0.098499 0.289952,0.046618 0.581402,0.085985 0.867813,0.1521762 0.04602,0.010637 0.308057,0.079277 0.363138,0.093641 0,0 -2.806989,-2.1234326 -2.806989,-2.1234326 v 0 c -0.385826,-0.043272 -0.768746,-0.103811 -1.15188,-0.1662243 -0.218933,-0.029715 -0.438432,-0.051473 -0.657597,-0.079141 -0.356214,-0.04497 -0.103945,-0.01617 -0.460276,-0.068555 -0.06964,-0.010238 -0.139576,-0.018366 -0.209363,-0.02755 -0.416141,-0.059466 -0.834638,-0.1023906 -1.2492,-0.1727764 -0.05274,-0.00359 -0.1053912,-0.00911 -0.1582305,-0.010779 -0.2473681,-0.00784 -0.4949774,0.01498 -0.7397721,0.048133 -0.4694596,0.061888 -0.9412941,0.1191193 -1.4160054,0.096077 -0.083441,0.00114 -0.1668853,0.00475 -0.2503241,0.00343 -0.3174883,-0.005 -0.6355841,-0.036291 -0.9469224,-0.098725 z" />
    <path
       style="fill:#000000"
       id="path22"
       d="m 3.7793004,12.266965 c -0.016021,-0.03587 -0.035778,-0.0703 -0.048063,-0.107617 -0.04801,-0.145837 -0.064226,-0.309487 -0.058939,-0.462256 0.0039,-0.112804 0.019151,-0.177207 0.03861,-0.286563 0.050878,-0.203131 0.066073,-0.415365 0.1292902,-0.615449 0.011705,-0.03705 0.026978,-0.07287 0.040467,-0.109305 0.060711,-0.201424 0.1266079,-0.401163 0.1925483,-0.600948 0.031131,-0.087816 0.059454,-0.1762903 0.1010312,-0.2599383 0.012726,-0.025602 0.028418,-0.04966 0.041066,-0.0753 0.026123,-0.052956 0.045359,-0.1063648 0.066714,-0.1613771 0.049078,-0.1100813 0.089938,-0.2297413 0.1659434,-0.3250826 0.01616,-0.00753 0.020163,-0.014202 0.012595,0.017316 -0.013282,0.055319 -0.050685,0.1252695 -0.014216,0.1820343 0.010458,0.016278 0.029185,0.025409 0.043778,0.038113 1.0424275,0.6772677 0.073278,0.046126 -2.9762684,-1.719391 -0.029672,-0.017178 0.059437,0.034207 0.088744,0.052001 0.096032,0.05831 0.1839352,0.1237235 0.2718041,0.1935815 0.1776437,0.1505183 0.3352156,0.3220012 0.4918923,0.4936591 0.1621149,0.1835587 0.3196727,0.3701591 0.4641482,0.5679573 0.1013069,0.1335064 0.1921461,0.2740325 0.2771954,0.4183421 0.011607,0.019052 0.022057,0.038859 0.034821,0.057155 0.024732,0.03545 0.056877,0.065262 0.082191,0.1002994 0.069177,0.095747 0.00949,0.02594 0.071429,0.1199865 0.012417,0.018854 0.027461,0.03584 0.041191,0.05376 0.073073,0.1034462 0.1137997,0.2233848 0.1670815,0.3368528 0.00798,0.01588 0.017238,0.03117 0.023937,0.04763 0.026683,0.06556 0.044915,0.133791 0.075056,0.198268 0.020269,0.04336 0.044853,0.08456 0.067015,0.126986 0.5822647,1.33477 -2.74359264,-1.2627059 3.2635111,1.976443 0.031965,0.01724 0.065692,-0.03131 0.096613,-0.05035 0.061333,-0.03778 0.1231624,-0.09148 0.1786396,-0.136863 0.1334492,-0.15032 0.2754354,-0.295074 0.380324,-0.467633 0.042651,-0.08317 0.076471,-0.170768 0.083488,-0.264869 -4.169e-4,-0.08215 -0.00237,-0.04145 0.00568,-0.122126 9.412e-4,-0.134249 0.023956,-0.265597 0.052903,-0.396354 0.039895,-0.145352 0.060568,-0.296909 0.072256,-0.447123 0.00662,-0.1017 0.042228,-0.197655 0.062828,-0.296498 0.030752,-0.14755 -0.00738,-0.01332 0.034845,-0.149434 0.02957,-0.08647 0.040775,-0.177838 0.064455,-0.2657366 0.00818,-0.030366 0.020439,-0.059516 0.029041,-0.089766 0.00662,-0.023288 0.041731,-0.1720993 0.046602,-0.1925815 0.04894,-0.219973 0.12233,-0.4319581 0.2059464,-0.6408133 0.040818,-0.076728 0.085482,-0.1614329 0.1639081,-0.2067694 0.015711,-0.00908 0.034335,-0.011765 0.051439,-0.01783 0.00854,0.02164 0.083722,0.0439 0.091409,0.051614 0.0068,0.00682 0.00789,0.017582 0.01183,0.026372 -0.1243058,1.2660938 0.00852,0.078869 -3.1720216,-1.7764254 -0.016369,-0.00955 0.038953,0.00427 0.05502,0.014315 0.019002,0.011885 0.03072,0.032643 0.046111,0.048936 0.079947,0.084631 0.040719,0.036597 0.1128591,0.141485 0.017061,0.02593 0.033753,0.052107 0.051184,0.07779 0.041486,0.061126 0.086546,0.1198166 0.1269024,0.1816934 0.066212,0.1015203 0.1250991,0.2082571 0.1893065,0.3110991 0.020255,0.035581 0.041036,0.070868 0.060766,0.1067436 0.045529,0.08279 0.059564,0.1173344 0.1075629,0.1977646 0.063182,0.1058733 0.1323276,0.2088489 0.1997452,0.3120415 0.024609,0.039802 0.048315,0.080176 0.073826,0.1194052 0.027576,0.042404 0.057974,0.082933 0.085398,0.1254363 0.095785,0.1484513 0.1784544,0.305377 0.2678621,0.4576675 0.1191054,0.2004875 0.2355566,0.4024361 0.3527595,0.6040114 0.093874,0.1362733 0.1578128,0.2881706 0.2299797,0.4360126 0.017316,0.06805 0.0597,0.123486 0.092712,0.18398 0,0 3.3876404,1.487159 3.3876404,1.487159 v 0 c -0.04133,-0.05408 -0.07079,-0.117369 -0.12543,-0.160311 -0.04021,-0.07384 -0.08713,-0.139106 -0.134041,-0.208707 -0.07178,-0.106487 -0.04667,-0.07548 -0.113703,-0.190137 -0.01957,-0.03348 -0.04031,-0.06626 -0.06046,-0.09939 -0.169931,-0.262111 0.05018,0.08258 -0.116312,-0.195762 -0.01951,-0.03261 -0.04281,-0.06284 -0.06249,-0.09535 -0.06391,-0.105564 -0.118768,-0.21691 -0.190817,-0.317607 -0.072115,-0.116617 -0.1490761,-0.229979 -0.2210195,-0.34669 -0.2096714,-0.3401408 0.054304,0.08549 -0.1401157,-0.247246 -0.021308,-0.036466 -0.04561,-0.0711 -0.068415,-0.1066492 C 9.4872175,9.705159 9.5975031,9.9078988 9.4837749,9.7106962 9.4647556,9.6777172 9.4482626,9.6432782 9.4282737,9.6108777 9.365854,9.5096998 9.2873023,9.4183708 9.2365168,9.3099173 9.1245043,9.0942153 9.2369335,9.3059017 9.1223225,9.1035518 9.0557589,8.9860313 9.0060538,8.8597499 8.9300874,8.7474681 8.8588667,8.6238637 8.9174223,8.7359097 8.8671084,8.6087264 c -0.00692,-0.01748 -0.019814,-0.03262 -0.024368,-0.050858 -0.00528,-0.021167 0.014055,-0.054026 -0.00463,-0.065286 C 5.6570725,6.5757966 6.7195465,6.0407396 5.5592419,6.6495756 5.4617154,6.698984 5.3730848,6.7327658 5.3026067,6.824196 5.2064407,6.9529384 5.1606951,7.1113821 5.101437,7.2589021 5.064588,7.3678709 5.034134,7.4785523 4.9977123,7.5876311 c -0.096746,0.2897471 0.017861,-0.063426 -0.083503,0.2256174 -0.011421,0.032569 -0.020438,0.065932 -0.030657,0.098898 -0.025319,0.064423 -0.051836,0.1270108 -0.070858,0.1936881 -0.00834,0.029221 -0.011763,0.059724 -0.020541,0.088815 -0.025295,0.083831 -0.068263,0.1622405 -0.085304,0.2488122 -0.017043,0.056051 -0.038808,0.1106235 -0.055032,0.1669172 -0.00685,0.02378 -0.00998,0.048482 -0.015359,0.072638 -0.018237,0.081897 -0.037327,0.1635848 -0.052381,0.2461693 -0.036401,0.1459925 -0.010655,0.024255 -0.027416,0.1549788 -0.011642,0.090803 -0.033575,0.1803128 -0.041407,0.2717121 -0.022591,0.097382 -0.049793,0.1933981 -0.07264,0.2906553 -0.00608,0.025863 -0.015315,0.050985 -0.020198,0.077099 -0.00362,0.019379 -0.00349,0.039276 -0.00523,0.058914 -0.00169,0.019911 -0.00337,0.039822 -0.00506,0.059733 -0.0039,0.019524 -0.00948,0.038785 -0.011688,0.058571 -0.00578,0.051693 0.00829,0.1054405 -0.00536,0.1567115 -0.022323,0.08171 -0.056311,0.149278 -0.1184703,0.208755 -0.018225,0.01744 -0.036163,0.03594 -0.057935,0.04868 -0.018051,0.01056 -0.039644,0.01333 -0.059466,0.01999 -0.042778,-4.69e-4 -0.065656,0.0079 -0.098602,-0.02966 -0.012857,-0.01466 -0.041267,-0.06279 -0.024293,-0.0532 1.0409119,0.587985 2.078688,1.18184 3.1056868,1.793802 0.020252,0.01207 -0.045867,0.02045 -0.068959,0.0157 -0.019772,-0.0041 -0.030689,-0.02623 -0.046034,-0.03934 -0.119758,-0.15148 0.035967,0.04799 -0.077173,-0.104958 -0.010823,-0.01463 -0.024467,-0.02714 -0.034433,-0.04237 -0.032726,-0.05 -0.057538,-0.107489 -0.070538,-0.165566 -0.070065,-0.178252 0.026745,0.06211 -0.052158,-0.114634 -0.0099,-0.02218 -0.016226,-0.04585 -0.026256,-0.06798 -0.00958,-0.02113 -0.023026,-0.04037 -0.032472,-0.06156 -0.02001,-0.04488 -0.030146,-0.09382 -0.05445,-0.136998 -0.00971,-0.02321 -0.016895,-0.04765 -0.029136,-0.06963 -0.022917,-0.04115 -0.062007,-0.07204 -0.078541,-0.117452 C 6.5395528,11.07973 6.5211518,11.012313 6.464213,10.966612 6.349277,10.82325 6.486804,10.996682 6.36618,10.837977 6.302346,10.753987 6.311858,10.775247 6.2516995,10.685104 c -0.019308,-0.02893 -0.035728,-0.05975 -0.055468,-0.08839 -0.020684,-0.03001 -0.0438,-0.05826 -0.0657,-0.0874 -0.049175,-0.06321 -0.095419,-0.128688 -0.1453693,-0.191287 -0.027665,-0.03467 -0.058357,-0.06684 -0.086291,-0.101291 -0.027989,-0.03452 -0.053272,-0.07119 -0.08143,-0.105569 -0.027064,-0.03305 -0.056108,-0.06442 -0.084163,-0.09663 -0.02563,-0.031715 -0.051262,-0.063452 -0.076894,-0.095188 C 5.5137463,9.7281878 5.3569734,9.5488177 5.1867371,9.3816183 5.1380504,9.3295376 5.0913684,9.2755342 5.0410481,9.2250302 5.0247901,9.2087128 4.9229322,9.1137677 4.8995082,9.1000061 1.908981,7.343075 2.8061141,7.8010016 1.6406651,7.208478 1.6126361,7.1983931 1.5861109,7.1821146 1.5565781,7.1782232 1.4002109,7.1576198 1.2790468,7.3045374 1.2226719,7.4315226 c -0.010841,0.03549 -0.023905,0.070277 -0.034674,0.1057895 -0.027831,0.091783 -0.039039,0.1882561 -0.074727,0.2779362 -0.00715,0.016499 -0.061928,0.1422789 -0.067539,0.1577442 -0.00998,0.027517 -0.015974,0.056357 -0.025611,0.083996 -0.0344708,0.098861 -0.0833714,0.1920587 -0.11192592,0.2930842 -0.028921,0.09896 -0.0609136,0.1971744 -0.088124,0.2966191 -0.04599,0.168078 -0.0105845,0.049441 -0.0527474,0.2154591 -0.009779,0.038504 -0.0209223,0.076648 -0.0313835,0.1149719 -0.0244395,0.1353054 -0.0165517,0.1116576 -0.0568579,0.2487243 -0.013592,0.046221 -0.0320243,0.09106 -0.0432598,0.1379098 -0.0316279,0.1318835 -0.0324528,0.2701882 -0.0483419,0.4041409 -0.0145374,0.1645773 -0.0275404,0.3290292 -0.0470296,0.4931232 -0.008503,0.07159 -0.0206538,0.196696 -0.0445356,0.269479 -0.009088,0.0277 -0.0260546,0.05216 -0.0390819,0.07823 z" />
    <path
       style="fill:#000000"
       id="path23"
       d="m 11.458201,8.1028383 c 0.02417,0.085713 0.02837,0.1790664 0.01902,0.267634 -0.0091,0.086255 -0.0404,0.1723006 -0.05986,0.2565984 -0.03878,0.1102088 -0.04414,0.2275441 -0.06841,0.340879 -0.01881,0.087869 -0.02164,0.088628 -0.04995,0.1746036 -0.04284,0.098881 -0.07624,0.2013903 -0.09292,0.3081154 -0.0032,0.020514 -0.01684,0.1588952 -0.01917,0.1820757 -7.79e-4,0.1229761 -0.03609,0.241846 -0.05058,0.3629002 -0.0095,0.1419124 -0.0022,0.071741 -0.02188,0.2105374 -0.0258,0.176709 -0.05222,0.353417 -0.06356,0.531736 -0.01736,0.13645 -0.01108,0.274175 -0.0086,0.411292 -9.93e-4,0.07707 -9.88e-4,0.15489 0.0079,0.2316 0.0036,0.03077 0.01112,0.06101 0.01418,0.09183 0.0057,0.05776 0.0054,0.115975 0.009,0.173908 -0.0067,0.100468 0.0025,0.201234 4.25e-4,0.301689 -9.69e-4,0.04777 -0.0057,0.0954 -0.0086,0.1431 -0.0023,0.06312 -0.01383,0.125007 -0.02637,0.186694 0,0 3.254901,1.706016 3.254901,1.706016 v 0 c 0.0026,-0.07199 0.0077,-0.143702 0.01769,-0.215119 0.0091,-0.162402 0.02232,-0.324855 0.0015,-0.487101 -7.85e-4,-0.05946 -0.006,-0.118839 -0.006,-0.178309 2.2e-5,-0.02844 0.0046,-0.05675 0.0049,-0.08519 6.6e-4,-0.06933 -0.01178,-0.138405 -0.0082,-0.207837 0.0021,-0.135875 0.0071,-0.271935 -0.0048,-0.407529 -0.0027,-0.172382 -0.01159,-0.345243 0.0074,-0.517132 0.02917,-0.237998 -0.0082,0.0375 0.03456,-0.194443 0.0054,-0.0292 0.0071,-0.05897 0.01148,-0.08833 0.01403,-0.09314 0.03862,-0.184106 0.04852,-0.277879 0.02552,-0.14858 0.05371,-0.296348 0.07773,-0.445078 0.0079,-0.02986 0.01469,-0.06005 0.02382,-0.08957 0.02843,-0.09191 0.04081,-0.102498 0.06549,-0.196847 0.01236,-0.04725 0.02094,-0.11465 0.02872,-0.163287 0.0045,-0.02794 0.0093,-0.05582 0.01388,-0.08373 0.03044,-0.131045 0.05168,-0.25834 0.08731,-0.3889146 0.0072,-0.026438 0.01136,-0.053863 0.02125,-0.079422 0.0085,-0.021986 0.02238,-0.0415 0.03357,-0.06225 z" />
    <path
       style="fill:#000000"
       id="path24"
       d="m 11.942984,7.5971094 c 0.0402,0.064909 0.06004,0.1400814 0.06931,0.2152602 -4.2e-5,0.0026 -0.0012,0.050176 -5e-6,0.054574 7.62e-4,0.0029 0.005,0.00327 0.0075,0.0049 3.48e-4,0.00519 6.96e-4,0.010371 0.001,0.015556 0,0 3.302147,1.7425167 3.302147,1.7425167 v 0 c 0.01279,-0.055487 0.02886,-0.1064992 0.01203,-0.1634127 -0.0063,-0.088214 -0.0149,-0.1769356 -0.01422,-0.2650827 z" />
    <path
       style="fill:#000000"
       id="path25"
       d="m 0.32360201,11.611343 c 0.0342845,0.104974 0.0175278,0.214411 0.0142747,0.322125 0.0140988,0.09835 -0.009422,0.195647 -0.0210129,0.292959 -0.002329,0.03756 -0.0155573,0.07299 -0.0217857,0.10977 -0.002369,0.01399 -0.001429,0.02844 -0.004163,0.04237 -0.009355,0.04764 -0.0270494,0.09535 -0.0416521,0.141638 -0.005067,0.01645 -0.0120409,0.03243 -0.0152004,0.04935 -0.0133091,0.07128 -0.0108214,0.145059 -0.0283382,0.21594 -0.0122768,0.04968 -0.0302886,0.09779 -0.043507,0.147221 -0.0226478,0.06466 -0.0457225,0.129394 -0.07189656,0.192741 -0.0173668,0.04203 -0.03394786,0.07508 -0.03984661,0.120378 -0.01951781,0.07891 -0.03713276,0.156802 -0.04065513,0.238149 0.00581103,0.05423 -0.008993492,0.107819 -0.00718319,0.161785 0.00477289,0.05839 0.00340989,0.02935 0.00417144,0.08713 0,0 3.30372824,1.683272 3.30372824,1.683272 v 0 c 0.00204,-0.153573 -0.002,0.06439 0.00428,-0.08061 0.00215,-0.04967 -0.010892,-0.09923 -0.00232,-0.148955 0.00342,-0.06401 -0.00105,-0.128623 0.012302,-0.191776 0.00352,-0.01384 0.009,-0.02732 0.01055,-0.04151 0.00296,-0.02708 -0.00368,-0.05444 -0.0028,-0.08167 0.00207,-0.06417 0.012613,-0.127841 0.028337,-0.189994 0.016591,-0.04977 0.029269,-0.100788 0.046004,-0.150508 0.02715,-0.08066 0.067188,-0.157551 0.08592,-0.240699 0.014563,-0.05323 0.024308,-0.107795 0.0403,-0.160603 0.00676,-0.02233 0.017181,-0.04356 0.022441,-0.06629 0.00805,-0.03477 2.475e-4,-0.07216 0.01445,-0.106086 0.026301,-0.113997 0.040932,-0.230275 0.062793,-0.345159 -0.003,-0.102343 -0.022487,-0.209114 0.014275,-0.307578 z" />
    <path
       style="fill:#000000"
       id="path26"
       d="m 3.6951147,13.998749 c 4.265e-4,-0.01122 -0.021608,-0.05717 -0.00572,-0.07127 0.00377,-0.0033 0.00971,-0.0031 0.013934,-0.0059 0.156755,-0.10211 -0.1149387,0.06499 0.088628,-0.05861 0.1441857,-0.09296 0.3011306,-0.163396 0.4658025,-0.210713 0.1505609,-0.05706 0.2964259,-0.124687 0.4439897,-0.188591 0.0824,-0.03732 0.1738545,-0.03578 0.259687,-0.05862 0.1190474,-0.03167 0.00495,-0.0087 0.1144273,-0.0286 0.020733,-0.0056 0.041619,-0.01068 0.0622,-0.01683 0.073142,-0.02185 0.053914,-0.02176 0.1265066,-0.03451 0.055616,-0.0098 0.1121569,-0.01093 0.1683766,-0.01434 0.1733226,0.01076 0.3465436,0.02332 0.519291,0.04292 0.07732,0.0088 0.1398751,0.04732 0.2064357,0.08307 0.019871,0.01067 0.041147,0.01879 0.060308,0.03069 0.041511,0.02578 0.069132,0.05408 0.1049725,0.08682 -1.0203461,-0.591261 -2.0409605,-1.182059 -3.0610383,-1.773782 -0.025158,-0.01459 0.051644,0.02691 0.076268,0.04239 0.024574,0.01545 0.047742,0.03304 0.07111,0.05026 0.060799,0.0448 0.1125758,0.09457 0.1656238,0.148009 0.078772,0.07562 0.1580785,0.151143 0.2124807,0.246261 0.00649,0.01737 0.011744,0.03525 0.019467,0.05211 0.027358,0.05971 0.022628,0.02649 0.041568,0.08653 0.010292,0.03263 0.012387,0.05898 0.031706,0.08795 0.029451,0.0479 -0.00981,0.09247 -0.033375,0.133593 -0.010231,0.0094 -0.018944,0.02082 -0.030693,0.02827 -0.018925,0.01199 -0.044974,0.01059 -0.065542,0.01445 -0.080739,0.01518 -0.00651,0.0054 -0.09805,0.02811 -0.017708,0.0044 -0.035975,0.0061 -0.053963,0.0092 -0.020487,0.002 -0.041366,0.0017 -0.061462,0.0061 -0.024726,0.0055 -0.048108,0.0159 -0.072221,0.02366 -0.057504,0.01852 -0.1163877,0.03276 -0.1733503,0.05288 -0.2487481,0.08787 0.03416,0.0031 -0.2187782,0.0751 -0.1407776,0.05155 -0.2917423,0.0625 -0.4356929,0.100198 -0.05621,0.01472 -0.1295995,0.04351 -0.1844553,0.06395 -0.073121,0.02455 -0.1391494,0.06639 -0.2095391,0.09659 -0.069441,0.02979 -0.1442739,0.05063 -0.2174866,0.06837 -0.033219,0.01078 -0.1017215,0.02966 -0.1309604,0.05203 -0.1150506,0.08804 -0.1762898,0.25996 -0.1349073,0.400736 0.015594,0.05305 0.058415,0.09389 0.087623,0.140841 1.1209928,0.841483 0.5781073,0.446731 3.3579457,1.903175 0.082927,0.04345 0.1853602,0.02663 0.2776224,0.04251 0.1173175,0.0202 0.2347592,0.04018 0.3510319,0.06572 0.305039,0.06699 0.4298443,0.110264 0.726077,0.198998 0.3914861,0.139221 0.2055652,0.06688 0.5587241,0.214539 0,0 -2.6696054,-2.073757 -2.6696054,-2.073757 v 0 C 4.174174,14.078215 4.32073,14.109504 4.010233,14.046239 3.6535344,13.974263 3.2964696,13.902262 2.9537962,13.775997 2.8252318,13.728625 2.4586952,13.543244 2.5760128,13.614022 c 2.4476392,1.476665 3.6992349,1.943919 2.6040751,1.529253 -0.024862,-6.19e-4 -0.051207,-0.01034 -0.074585,-0.0019 -0.013652,0.005 -0.1635803,0.145808 -0.1257743,0.138275 0.010563,-0.0021 0.019105,-0.01 0.02876,-0.01473 0.015536,-0.0077 0.031206,-0.01509 0.046809,-0.02264 0.1395219,-0.06517 0.2837317,-0.117377 0.4243428,-0.17978 0.1771881,-0.0714 0.3645501,-0.118827 0.5482761,-0.169847 0.037712,-0.01004 0.074942,-0.02211 0.1131364,-0.03013 0.073544,-0.01544 0.1484702,-0.02334 0.2227172,-0.03493 0.060376,-0.0094 0.1217452,-0.01332 0.1813641,-0.02673 0.025957,-0.0058 0.050745,-0.01601 0.076117,-0.02401 0.072414,-0.02642 0.1480645,-0.05103 0.213205,-0.09359 0.06743,-0.04406 0.1237236,-0.10358 0.1756645,-0.16437 0.017125,-0.01811 0.035607,-0.03504 0.051375,-0.05434 0.070632,-0.08648 0.105189,-0.200428 0.1325528,-0.306425 0.00277,-0.0218 0.00788,-0.04342 0.0083,-0.06539 8.516e-4,-0.04491 -0.010478,-0.06352 -0.021105,-0.106426 -0.014943,-0.06034 -0.017175,-0.124199 -0.051036,-0.178261 -0.00616,-0.0208 -0.012835,-0.04145 -0.018474,-0.0624 -0.00627,-0.02328 -0.00871,-0.0477 -0.017239,-0.07026 -0.00759,-0.02008 -0.021465,-0.03724 -0.030716,-0.05661 -0.01052,-0.02203 -0.016967,-0.04595 -0.028526,-0.06746 -0.020816,-0.03872 -0.061915,-0.08918 -0.088354,-0.123571 -1.0366757,-1.138093 -0.6171888,-0.667657 -3.4715888,-2.172749 -0.070164,-0.0213 -0.1432249,-0.0433 -0.216139,-0.05323 -0.075401,-0.01027 -0.1529225,-0.0052 -0.2285685,-0.0027 -0.1933588,-0.0042 -0.3871131,-0.03279 -0.5801232,-0.0055 -0.028543,0.0041 -0.057336,0.0068 -0.08563,0.01234 -0.1054995,0.0208 -0.2038148,0.07179 -0.3114999,0.08491 -0.061251,0.01834 -0.1278596,0.03287 -0.1869183,0.05775 -0.065534,0.02761 -0.1239883,0.07183 -0.1910101,0.09658 -0.2280138,0.09453 0.092615,-0.03649 -0.1612613,0.06038 -0.095584,0.03647 -0.1850454,0.08807 -0.2810238,0.123785 -0.1701306,0.09165 -0.34661604,0.170232 -0.51769153,0.259898 -0.0369815,0.02545 -0.11302602,0.07604 -0.14537644,0.105749 -0.0836178,0.07678 -0.13373418,0.171788 -0.17921401,0.273784 z" />
  </g>
</svg>
